<?xml  version="1.0" encoding="UTF-8"?>
<!DOCTYPE svg PUBLIC "-//W3C//DTD SVG 1.0//EN" "http://www.w3.org/TR/2001/REC-SVG-20010904/DTD/svg10.dtd" >
<svg xmlns="http://www.w3.org/2000/svg" >
<metadata>
<version>1.0</version>
<id><![CDATA[Proxima N W01 Light It]]></id>
<vendor>Monotype Imaging Inc.</vendor>
<credits>
<name>Fonts.com WebFonts</name>
<URL>http://webfonts.fonts.com</URL>
<role>Home of the Web fonts</role>
</credits>
<license>
<URL>http://webfonts.fonts.com/Legal</URL>
</license>
<copyright><![CDATA[Copyright (c) Mark Simonson, 2005. All rights reserved.]]></copyright>
<trademark><![CDATA[Proxima Nova is a trademark of Mark Simonson.]]></trademark>
<licensee>
<name></name>
</licensee>
</metadata>
<defs >
<font horiz-adv-x="496" id="a1adf259-df55-4d1c-a2ab-dd790daf22f8">
<font-face font-family="" panose-1="2 0 5 6 3 0 0 2 0 4" ascent="741" descent="-259" units-per-em="1000" alphabetic="0">
</font-face>
<missing-glyph horiz-adv-x="0" />

<glyph unicode="&#xA;" />
<glyph unicode="&#xD;" horiz-adv-x="0" />
<glyph unicode=" " horiz-adv-x="259" />
<glyph unicode="!" horiz-adv-x="219" d="M73 174L169 667H236L114 174H73ZM59 -10Q42 -10 31 2T19 31Q19 51 33 64T67 78Q84 78 95 66T107 37Q107 17 93 4T59 -10Z"  />
<glyph unicode="&quot;" horiz-adv-x="317" d="M118 427Q125 481 130 525Q132 544 134 562T138 595T141 620T143 633Q145 653 156 665T185 677Q198 677 207 668T217 644Q217 639 215 633T212 624Q212 623 209 615T202 592T191 560T179 524Q165 481 147 427H118ZM249 427Q256 481 261 525Q263 544 265 562T269 595T272 620T274 633Q276 653 287 665T316 677Q330 677 339 668T348 644Q348 639 347 633T343 624Q343 623 340 615T333 592T322 560T310 524Q296 481 278 427H249Z"  />
<glyph unicode="#" horiz-adv-x="579" d="M182 0L286 186H168L65 0H18L122 186H11L32 227H144L263 440H151L171 481H286L388 667H435L333 481H450L552 667H600L496 481H607L587 440H474L354 227H470L449 186H333L230 0H182ZM427 440H310L191 227H307L427 440Z"  />
<glyph unicode="$" horiz-adv-x="584" d="M217 -6Q151 5 101 34T26 105L68 146Q95 108 136 82T228 45L290 322Q258 335 228 350T174 385T136 431T121 492Q121 530 138 563T186 622T257 663T346 678Q352 678 357 678T369 677L389 768H435L413 671Q467 660 509 635T576 574L533 534Q510 568 476 589T402 619L346 367Q378 353 408 338T463 302T502 255T517 192Q517 154 502 118T457 53T383 6T281 -12Q276 -12 271 -12T261 -11L242 -100H196L217 -6ZM454 185Q454 207 444 224T418 256T379 282T332 305L273 40H286Q331 40 362 53T414 88T444 135T454 185ZM183 498Q183 477 192 461T218 432T257 407T304 385L357 625Q353 626 349 626T341 626Q308 626 279 616T229 587T196 546T183 498Z"  />
<glyph unicode="%" horiz-adv-x="720" d="M74 0L647 667H693L119 0H74ZM494 -12Q464 -12 438 -3T392 25T361 67T349 122Q349 165 363 201T402 262T458 302T524 316Q554 316 580 307T626 279T657 237T669 182Q669 138 655 103T616 42T560 2T494 -12ZM495 27Q520 27 543 38T583 70T611 117T622 178Q622 220 594 248T523 277Q498 277 475 266T435 234T407 186T396 126Q396 83 424 55T495 27ZM234 350Q204 350 178 359T132 386T101 428T90 483Q90 526 104 562T143 623T198 663T265 677Q295 677 321 668T366 641T397 599T409 544Q409 500 395 465T356 404T300 364T234 350ZM236 388Q261 388 284 399T324 431T352 479T363 539Q363 582 335 610T263 638Q238 638 215 627T175 595T147 548T136 487Q136 444 164 416T236 388Z"  />
<glyph unicode="&amp;" horiz-adv-x="639" d="M454 0Q443 14 431 30T404 65Q363 30 316 9T215 -12Q174 -12 139 -2T78 29T36 80T21 151Q21 200 37 235T81 297T145 343T219 379Q207 410 201 439T194 498Q194 535 208 567T247 624T303 663T370 677Q399 677 424 670T467 648T496 613T507 564Q507 520 488 489T439 435T369 395T289 361Q313 310 347 256Q365 224 382 197T417 143Q457 186 486 229T530 300L573 275Q548 235 517 190T445 103Q463 79 483 54T526 0H454ZM220 34Q262 34 301 54T376 104Q353 138 332 170T300 222Q281 254 265 283T236 339Q204 325 176 309T127 271T94 222T81 158Q81 127 92 104T123 65T167 42T220 34ZM250 499Q250 455 272 400Q308 414 340 428T398 461T438 503T453 559Q453 596 429 614T371 633Q351 633 330 625T291 599T262 557T250 499Z"  />
<glyph unicode="&apos;" horiz-adv-x="187" d="M118 427Q125 481 130 525Q132 544 134 562T138 595T141 620T143 633Q145 653 156 665T185 677Q198 677 207 668T217 644Q217 639 215 633T212 624Q212 623 209 615T202 592T191 560T179 524Q165 481 147 427H118Z"  />
<glyph unicode="(" horiz-adv-x="227" d="M81 -199Q55 -139 40 -68T25 84Q25 240 89 392T276 685L302 659Q199 520 140 373T81 60Q81 3 91 -59T117 -179L81 -199Z"  />
<glyph unicode=")" horiz-adv-x="227" d="M144 685Q170 625 185 554T201 402Q201 246 137 94T-50 -199L-76 -173Q-25 -104 16 -33T85 112T129 264T145 426Q145 483 135 545T109 665L144 685Z"  />
<glyph unicode="*" horiz-adv-x="335" d="M181 399L214 518L102 466L91 500L206 541L115 604L140 634L224 561L244 677H282L250 559L362 610L373 576L258 535L349 472L323 442L240 515L220 399H181Z"  />
<glyph unicode="+" d="M286 316L238 99H194L242 316H45L54 358H251L297 569H342L296 358H493L483 316H286Z"  />
<glyph unicode="&#x2c;" horiz-adv-x="219" d="M109 30Q109 9 101 -13T78 -54T45 -90T6 -117L-18 -90Q10 -76 31 -53T60 -6H53Q39 -6 29 4T19 30Q19 50 33 64T66 78Q84 78 96 66T109 30Z"  />
<glyph unicode="-" horiz-adv-x="300" d="M24 218L34 266H274L264 218H24Z"  />
<glyph unicode="." horiz-adv-x="219" d="M59 -10Q42 -10 31 2T19 31Q19 51 33 64T67 78Q84 78 95 66T107 37Q107 17 93 4T59 -10Z"  />
<glyph unicode="/" horiz-adv-x="282" d="M-59 -20L334 687H381L-13 -20H-59Z"  />
<glyph unicode="0" horiz-adv-x="608" d="M275 -12Q223 -12 184 6T119 58T79 139T65 244Q65 317 86 393T146 533T243 636T373 677Q425 677 464 659T529 608T568 527T581 422Q581 374 572 323T545 223T501 132T441 57T365 7T275 -12ZM280 40Q336 40 381 77T457 170T505 295T522 426Q522 468 514 504T487 568T439 610T367 625Q330 625 297 608T238 562T190 495T155 414T133 327T125 240Q125 198 133 162T160 98T208 56T280 40Z"  />
<glyph unicode="1" horiz-adv-x="308" d="M114 0L243 589L112 475L85 512L266 667H318L171 0H114Z"  />
<glyph unicode="2" horiz-adv-x="582" d="M2 0L16 60Q114 123 200 181T351 294T453 403T491 509Q491 564 449 594T338 625Q281 625 238 607T165 558L134 598Q169 633 224 655T340 677Q381 677 419 667T487 637T535 585T553 511Q553 451 515 393T414 277T270 163T102 52H453L442 0H2Z"  />
<glyph unicode="3" horiz-adv-x="544" d="M240 -12Q199 -12 161 -2T92 26T37 70T1 127L47 157Q70 103 122 72T240 40Q281 40 313 52T369 85T404 136T416 200Q416 253 373 285T257 317Q237 317 223 317T200 316L213 370Q216 370 226 370T250 369T278 369T302 369Q335 369 366 377T422 403T460 445T475 506Q475 556 432 590T313 625Q270 625 227 609T142 555L114 595Q152 633 205 655T316 677Q362 677 402 666T471 634T516 582T533 511Q533 471 517 440T474 387T416 353T352 338Q376 332 398 321T436 291T463 250T473 197Q473 155 457 117T409 51T335 5T240 -12Z"  />
<glyph unicode="4" horiz-adv-x="541" d="M297 0L337 182H21L34 237L420 667H501L405 234H503L492 182H394L354 0H297ZM431 610L91 234H348L431 610Z"  />
<glyph unicode="5" horiz-adv-x="582" d="M271 -12Q185 -12 130 21T42 123L88 156Q114 96 161 68T276 40Q313 40 346 54T405 92T445 150T460 222Q460 256 448 282T414 327T363 354T299 364Q257 364 223 352T153 313L115 336L188 667H573L562 615H234L179 368Q202 385 239 399T322 414Q361 414 397 402T460 367T503 308T520 227Q520 179 502 136T451 60T372 8T271 -12Z"  />
<glyph unicode="6" horiz-adv-x="584" d="M275 -12Q171 -12 116 50T61 228Q61 272 69 322T93 422T135 518T196 599T276 656T377 677Q446 677 494 650T569 573L526 536Q507 578 468 601T374 625Q320 625 280 599T210 532T161 439T130 338Q128 331 127 327T125 319Q138 334 159 350T207 380T263 403T325 412Q369 412 405 400T468 366T509 312T524 239Q524 189 505 144T453 64T375 9T275 -12ZM277 40Q317 40 351 56T411 98T450 159T464 231Q464 292 421 327T307 362Q253 362 205 336T118 266Q117 259 117 241T116 213Q116 175 126 144T156 89T207 53T277 40Z"  />
<glyph unicode="7" horiz-adv-x="502" d="M67 0L481 615H115L126 667H563L554 627L133 0H67Z"  />
<glyph unicode="8" horiz-adv-x="571" d="M266 -12Q217 -12 175 -1T103 31T55 83T37 155Q37 194 52 226T95 284T161 326T246 351Q224 359 202 372T163 403T135 444T124 494Q124 541 144 575T197 632T269 666T349 677Q391 677 430 666T499 635T546 584T564 516Q564 478 550 448T509 396T446 359T368 338Q389 329 412 315T454 282T486 236T499 178Q499 137 481 102T431 42T357 2T266 -12ZM313 368Q354 371 388 381T448 410T488 453T503 510Q503 534 491 555T457 591T408 615T347 624Q315 624 285 615T232 589T196 548T182 491Q182 467 194 447T226 411T269 384T313 368ZM267 40Q299 40 330 49T386 77T426 121T441 182Q441 209 428 232T393 272T348 301T302 319Q258 316 221 304T156 271T113 224T97 164Q97 133 111 110T148 72T202 48T267 40Z"  />
<glyph unicode="9" horiz-adv-x="584" d="M347 678Q451 678 506 616T561 438Q561 394 553 344T529 243T487 148T426 67T346 10T245 -11Q176 -11 128 16T54 93L96 130Q115 88 154 65T249 41Q303 41 343 67T413 134T461 227T493 328Q495 335 496 339T497 346Q483 331 462 315T415 285T359 263T297 254Q253 254 217 266T154 300T113 354T98 427Q98 477 117 522T169 602T248 657T347 678ZM345 626Q304 626 270 610T211 568T172 507T158 435Q158 374 201 339T315 304Q370 304 418 330T504 400Q505 407 505 425T506 453Q506 491 496 522T465 577T415 613T345 626Z"  />
<glyph unicode=":" horiz-adv-x="219" d="M59 -10Q42 -10 31 2T19 31Q19 51 33 64T67 78Q84 78 95 66T107 37Q107 17 93 4T59 -10ZM150 403Q133 403 122 414T110 443Q110 463 124 476T158 490Q175 490 186 479T198 450Q198 430 184 417T150 403Z"  />
<glyph unicode=";" horiz-adv-x="219" d="M109 30Q109 9 101 -13T78 -54T45 -90T6 -117L-18 -90Q10 -76 31 -53T60 -6H53Q39 -6 29 4T19 30Q19 50 33 64T66 78Q84 78 96 66T109 30ZM150 403Q133 403 122 414T110 443Q110 463 124 476T158 490Q175 490 186 479T198 450Q198 430 184 417T150 403Z"  />
<glyph unicode="&lt;" d="M44 316L53 353L541 580L529 528L100 331L442 137L432 90L44 316Z"  />
<glyph unicode="=" d="M66 411L75 453H513L504 411H66ZM22 216L32 257H470L461 216H22Z"  />
<glyph unicode="&gt;" d="M-6 90L6 142L436 336L93 533L103 580L491 353L483 316L-6 90Z"  />
<glyph unicode="?" horiz-adv-x="464" d="M199 176Q173 209 173 248Q173 284 192 308T239 351T300 385T362 420T409 463T428 524Q428 569 392 597T290 625Q192 625 122 553L94 592Q139 637 188 657T294 677Q338 677 374 667T436 637T476 591T491 531Q491 487 472 456T422 403T358 365T294 331T245 294T225 245Q225 236 229 224T244 201L199 176ZM172 -10Q155 -10 144 2T132 31Q132 51 146 64T180 78Q197 78 208 66T220 37Q220 17 206 4T172 -10Z"  />
<glyph unicode="@" horiz-adv-x="783" d="M372 -70Q304 -70 246 -46T146 20T79 120T55 244Q55 325 88 397T175 522T302 607T452 638Q522 638 580 613T680 545T744 442T767 316Q767 259 753 216T717 144T665 100T605 85Q563 85 541 111T517 170L516 176Q490 139 447 112T352 85Q283 85 241 128T199 245Q199 299 219 345T274 425T350 479T438 499Q489 499 521 475T568 417L581 482H630L571 200Q570 195 570 191T569 181Q569 155 584 141T619 126Q634 126 654 135T692 166T722 224T735 317Q735 379 714 432T656 523T566 584T449 606Q376 606 310 576T195 496T116 381T87 245Q87 185 108 133T168 43T260 -17T376 -39Q431 -39 476 -24T563 18L580 -7Q533 -37 481 -53T372 -70ZM362 126Q390 126 414 135T460 158T497 191T526 227L558 375Q553 388 544 402T521 429T488 450T444 458Q404 458 369 440T308 393T266 326T251 248Q251 195 279 161T362 126Z"  />
<glyph unicode="A" horiz-adv-x="647" d="M515 0L484 164H132L30 0H-39L381 667H452L578 0H515ZM406 606L162 216H478L406 606Z"  />
<glyph unicode="B" horiz-adv-x="614" d="M29 0L176 667H433Q467 667 497 657T549 626T585 578T598 516Q598 480 586 449T552 394T502 355T443 336Q464 331 482 318T512 286T532 245T540 198Q540 160 527 125T485 61T415 17T314 0H29ZM386 368Q428 368 456 381T502 414T527 459T535 510Q535 532 526 551T502 585T465 607T420 615H222L168 368H386ZM317 52Q357 52 387 64T439 98T470 146T481 201Q481 250 449 283T359 316H156L97 52H317Z"  />
<glyph unicode="C" horiz-adv-x="672" d="M367 -12Q301 -12 246 8T152 67T90 158T67 277Q67 368 98 442T182 568T300 649T437 678Q525 678 593 641T699 535L644 510Q609 573 554 599T433 626Q376 626 322 602T224 532T155 423T129 279Q129 225 146 181T194 106T269 57T370 40Q419 40 466 58T558 116L599 82Q548 33 488 11T367 -12Z"  />
<glyph unicode="D" horiz-adv-x="692" d="M29 0L176 667H384Q440 667 489 646T575 587T633 497T655 383Q655 314 630 246T553 123T424 34T241 0H29ZM251 52Q330 52 393 78T502 150T571 255T595 381Q595 432 578 474T532 548T462 597T373 615H222L97 52H246H251Z"  />
<glyph unicode="E" horiz-adv-x="564" d="M29 0L176 667H599L588 615H222L168 368H526L514 316H156L97 52H462L452 0H29Z"  />
<glyph unicode="F" horiz-adv-x="542" d="M29 0L176 667H599L588 615H222L168 368H526L514 316H156L86 0H29Z"  />
<glyph unicode="G" horiz-adv-x="711" d="M367 -12Q299 -12 244 9T149 69T89 161T67 277Q67 364 97 438T178 565T297 648T440 678Q530 678 595 641T697 541L646 515Q615 571 558 598T433 626Q374 626 319 601T222 529T155 419T129 279Q129 224 146 180T194 105T270 57T370 40Q434 40 482 64T564 120L599 280H347L358 331H668L615 93Q563 42 501 15T367 -12Z"  />
<glyph unicode="H" horiz-adv-x="703" d="M509 0L579 317H156L86 0H29L176 667H233L168 369H590L656 667H714L567 0H509Z"  />
<glyph unicode="I" horiz-adv-x="223" d="M29 0L176 667H233L86 0H29Z"  />
<glyph unicode="J" horiz-adv-x="470" d="M156 -12Q99 -12 53 10T-19 76L19 116Q39 80 72 60T153 40Q222 40 262 82T318 193L422 667H480L376 193Q353 88 297 38T156 -12Z"  />
<glyph unicode="K" horiz-adv-x="586" d="M440 0L232 318L138 233L86 0H29L176 667H233L154 309L550 667H628L274 349L508 0H440Z"  />
<glyph unicode="L" horiz-adv-x="517" d="M29 0L176 667H233L97 52H420L409 0H29Z"  />
<glyph unicode="M" horiz-adv-x="790" d="M595 0L726 595L352 0H330L218 595L86 0H29L176 667H258L362 111L712 667H800L653 0H595Z"  />
<glyph unicode="N" horiz-adv-x="699" d="M506 0L215 582L86 0H29L176 667H234L524 94L652 667H709L562 0H506Z"  />
<glyph unicode="O" horiz-adv-x="764" d="M367 -12Q305 -12 250 7T155 62T91 153T67 277Q67 362 96 435T175 562T293 647T437 678Q499 678 553 659T648 603T712 513T736 389Q736 304 707 231T628 104T510 19T367 -12ZM370 40Q430 40 485 66T582 138T649 247T674 387Q674 445 655 490T602 565T525 610T432 626Q371 626 316 600T220 528T154 419T129 279Q129 220 148 176T200 101T276 56T370 40Z"  />
<glyph unicode="P" horiz-adv-x="571" d="M29 0L176 667H410Q449 667 481 654T537 617T572 564T585 500Q585 461 572 422T528 350T451 298T338 277H148L86 0H29ZM345 329Q390 329 423 342T479 379T513 433T524 496Q524 520 515 541T490 579T451 605T401 615H222L159 329H345Z"  />
<glyph unicode="Q" horiz-adv-x="764" d="M367 -12Q305 -12 250 7T155 62T91 153T67 277Q67 362 96 435T175 562T293 647T437 678Q499 678 553 659T648 603T712 513T736 389Q736 286 694 201T582 62L627 2L581 -27L537 32Q499 11 456 0T367 -12ZM370 40Q405 40 439 49T504 76L418 193L464 222L549 106Q606 153 640 224T674 387Q674 445 655 490T602 565T525 610T432 626Q371 626 316 600T220 528T154 419T129 279Q129 220 148 176T200 101T276 56T370 40Z"  />
<glyph unicode="R" horiz-adv-x="594" d="M424 0L298 276H147L86 0H29L176 667H405Q439 667 471 656T529 624T570 571T586 499Q586 452 570 413T524 344T452 298T358 278L489 0H424ZM345 328Q389 328 422 341T478 378T512 431T524 496Q524 522 514 544T485 581T445 606T398 615H222L159 328H343H345Z"  />
<glyph unicode="S" horiz-adv-x="581" d="M279 -12Q236 -12 197 -3T124 21T65 58T24 105L66 146Q101 97 156 69T284 40Q329 40 360 53T412 88T442 135T452 185Q452 222 428 246T366 288T286 324T205 362T144 414T119 492Q119 530 136 563T184 622T255 663T344 678Q421 678 482 650T574 574L531 534Q499 581 448 603T339 626Q306 626 277 616T227 587T194 546T181 498Q181 464 205 442T267 402T348 366T428 326T490 271T515 192Q515 154 500 118T455 53T381 6T279 -12Z"  />
<glyph unicode="T" horiz-adv-x="564" d="M199 0L335 615H117L128 667H622L611 615H393L257 0H199Z"  />
<glyph unicode="U" horiz-adv-x="686" d="M327 -12Q270 -12 224 3T147 46T98 115T81 205Q81 234 86 256L176 667H234L144 257Q142 251 140 239T138 212Q138 136 187 88T327 40Q376 40 412 55T475 98T519 166T548 257L638 667H696L606 256Q592 194 571 145T517 61T438 7T327 -12Z"  />
<glyph unicode="V" horiz-adv-x="647" d="M234 0L108 667H171L280 64L656 667H725L305 0H234Z"  />
<glyph unicode="W" horiz-adv-x="867" d="M540 0L506 573L220 0H156L112 667H175L205 80L499 667H551L585 80L875 667H941L604 0H540Z"  />
<glyph unicode="X" horiz-adv-x="645" d="M507 0L337 302L42 0H-36L307 346L126 667H193L350 384L626 667H704L381 339L572 0H507Z"  />
<glyph unicode="Y" horiz-adv-x="618" d="M226 0L289 285L108 667H172L325 339L622 667H696L347 285L284 0H226Z"  />
<glyph unicode="Z" horiz-adv-x="581" d="M-4 0L7 50L529 615H133L143 667H617L607 618L84 52H488L477 0H-4Z"  />
<glyph unicode="[" horiz-adv-x="228" d="M-59 -190L133 678H307L297 635H167L-6 -147H123L114 -190H-59Z"  />
<glyph unicode="\" horiz-adv-x="282" d="M98 687H143L223 -20H178L98 687Z"  />
<glyph unicode="]" horiz-adv-x="228" d="M-79 -190L-69 -147H59L233 635H103L113 678H287L94 -190H-79Z"  />
<glyph unicode="^" horiz-adv-x="428" d="M383 333L300 626L88 333H38L286 667H328L428 333H383Z"  />
<glyph unicode="_" horiz-adv-x="564" d="M-75 -83L-65 -40H504L494 -83H-75Z"  />
<glyph unicode="`" horiz-adv-x="216" d="M241 556L101 700H163L285 556H241Z"  />
<glyph unicode="a" horiz-adv-x="571" d="M299 495Q359 495 403 469T473 401L490 483H543L436 0H383L400 73Q370 35 328 12T234 -12Q192 -12 158 1T98 40T59 102T45 186Q45 247 63 303T114 401T195 469T299 495ZM303 448Q258 448 221 427T157 370T117 289T102 195Q102 120 142 78T248 35Q273 35 297 42T343 62T382 92T412 128L463 360Q445 396 404 422T303 448Z"  />
<glyph unicode="b" horiz-adv-x="571" d="M271 -12Q211 -12 167 14T97 82L79 0H27L174 667H226L170 410Q199 448 241 471T336 495Q377 495 411 482T471 443T510 380T524 296Q524 236 506 180T455 82T375 14T271 -12ZM266 35Q312 35 349 56T412 113T452 194T467 287Q467 362 427 405T321 448Q295 448 271 441T226 420T188 391T157 355L106 123Q124 87 165 61T266 35Z"  />
<glyph unicode="c" horiz-adv-x="494" d="M261 -12Q214 -12 175 2T107 43T62 111T46 202Q46 262 66 315T123 408T208 471T314 495Q377 495 419 472T487 407L447 377Q426 414 391 431T316 448Q266 448 226 428T159 373T116 294T101 201Q101 160 113 129T148 77T200 46T266 35Q307 35 340 52T397 97L427 61Q395 28 356 8T261 -12Z"  />
<glyph unicode="d" horiz-adv-x="571" d="M299 495Q359 495 403 469T473 401L531 667H584L436 0H383L400 73Q370 35 328 12T234 -12Q192 -12 158 1T98 40T59 102T45 186Q45 247 63 303T114 401T195 469T299 495ZM303 448Q258 448 221 427T157 370T117 289T102 195Q102 120 142 78T248 35Q273 35 297 42T343 62T382 92T412 128L463 360Q445 396 404 422T303 448Z"  />
<glyph unicode="e" horiz-adv-x="567" d="M276 -12Q222 -12 179 3T107 47T62 114T46 201Q46 261 67 314T124 408T209 471T314 495Q362 495 400 479T465 435T505 369T519 286Q519 270 516 252T511 225H103Q102 220 102 212T101 197Q101 164 112 134T145 82T200 46T278 33Q315 33 353 46T424 85L444 47Q412 22 368 5T276 -12ZM468 266Q469 270 469 276T469 288Q469 323 459 353T428 404T377 438T308 450Q272 450 239 435T178 395T133 337T108 266H468Z"  />
<glyph unicode="f" horiz-adv-x="265" d="M44 0L141 437H61L71 483H151L160 527Q176 595 212 636T311 677Q341 677 363 669T406 640L376 607Q365 619 350 625T311 632Q269 632 247 605T213 527L203 483H302L291 437H193L97 0H44Z"  />
<glyph unicode="g" horiz-adv-x="570" d="M212 -196Q144 -196 93 -179T4 -114L41 -77Q67 -116 109 -133T211 -151Q240 -151 267 -143T317 -117T357 -68T384 5L399 77Q370 39 326 16T228 -8Q190 -8 157 4T98 41T59 104T45 193Q45 251 62 305T112 402T191 469T296 495Q322 495 347 488T396 468T438 438T471 401L490 483H543L436 5Q424 -51 402 -89T351 -151T287 -185T212 -196ZM247 38Q294 38 338 64T410 125L463 359Q441 400 396 424T298 448Q252 448 216 426T154 369T114 290T100 200Q100 124 140 81T247 38Z"  />
<glyph unicode="h" horiz-adv-x="540" d="M353 0L425 328Q427 335 429 346T431 363Q431 408 401 428T323 448Q300 448 278 441T234 422T194 395T159 363L79 0H27L174 667H226L170 410Q186 426 205 441T247 468T294 487T344 495Q406 495 445 466T485 377Q485 371 483 358T479 336L405 0H353Z"  />
<glyph unicode="i" horiz-adv-x="214" d="M180 559Q165 559 155 569T144 594Q144 614 158 626T189 638Q205 638 215 628T225 603Q225 583 211 571T180 559ZM27 0L134 483H186L79 0H27Z"  />
<glyph unicode="j" horiz-adv-x="214" d="M-74 -196Q-108 -196 -136 -186T-181 -154L-153 -116Q-142 -131 -123 -141T-81 -151Q-46 -151 -22 -131T13 -62L134 483H186L65 -62Q50 -129 17 -162T-74 -196ZM180 559Q165 559 155 569T144 594Q144 614 158 626T189 638Q205 638 215 628T225 603Q225 583 211 571T180 559Z"  />
<glyph unicode="k" horiz-adv-x="505" d="M368 0L223 233L111 145L79 0H27L174 667H226L125 211L467 483H540L266 265L432 0H368Z"  />
<glyph unicode="l" horiz-adv-x="214" d="M27 0L174 667H226L79 0H27Z"  />
<glyph unicode="m" horiz-adv-x="789" d="M602 0L676 336Q677 339 678 347T680 365Q680 405 654 426T592 448Q573 448 553 441T514 423T478 396T447 364L367 0H314L389 336Q391 347 392 353T393 371Q392 403 370 425T303 448Q284 448 265 441T227 423T191 396T159 364L79 0H27L134 483H186L170 410Q180 422 195 436T231 464T274 486T324 495Q354 495 377 486T415 462T437 431T445 402V400Q459 418 477 435T517 465T562 487T612 495Q636 495 658 488T697 465T724 428T734 377Q734 369 732 358T728 336L654 0H602Z"  />
<glyph unicode="n" horiz-adv-x="540" d="M353 0L425 328Q427 335 429 344T431 363Q431 408 401 428T326 448Q302 448 279 441T235 422T194 395T159 364L79 0H27L134 483H186L170 410Q186 426 205 441T247 468T294 487T344 495Q406 495 445 466T485 377Q485 370 483 357T479 336L405 0H353Z"  />
<glyph unicode="o" horiz-adv-x="571" d="M258 -12Q209 -12 170 3T103 46T60 113T45 200Q45 257 65 310T120 405T205 470T311 495Q360 495 399 480T466 437T509 370T524 283Q524 226 504 173T449 78T364 13T258 -12ZM259 35Q304 35 342 56T408 111T451 190T467 281Q467 357 426 402T310 448Q265 448 227 427T161 372T118 293T102 202Q102 126 143 81T259 35Z"  />
<glyph unicode="p" horiz-adv-x="567" d="M271 -12Q211 -12 167 14T97 82L38 -184H-14L134 483H186L170 410Q199 448 241 471T336 495Q377 495 411 482T471 443T510 380T524 296Q524 236 506 180T455 82T375 14T271 -12ZM266 35Q312 35 349 56T412 113T452 194T467 287Q467 362 427 405T321 448Q295 448 271 441T226 420T188 391T157 355L106 123Q124 87 165 61T266 35Z"  />
<glyph unicode="q" horiz-adv-x="567" d="M299 495Q359 495 403 469T473 401L490 483H543L395 -184H342L400 73Q370 35 328 12T234 -12Q192 -12 158 1T98 40T59 102T45 186Q45 247 63 303T114 401T195 469T299 495ZM303 448Q258 448 221 427T157 370T117 289T102 195Q102 120 142 78T248 35Q273 35 297 42T343 62T382 92T412 128L463 360Q445 396 404 422T303 448Z"  />
<glyph unicode="r" horiz-adv-x="317" d="M27 0L134 483H186L168 405Q187 427 205 443T246 471T293 487T351 493L339 437Q334 438 326 439T304 440Q282 440 261 433T220 413T185 384T157 352L79 0H27Z"  />
<glyph unicode="s" horiz-adv-x="459" d="M202 -12Q69 -12 8 73L45 109Q64 79 105 56T203 32Q233 32 256 40T296 62T322 94T331 132Q331 158 312 175T264 206T202 232T140 260T92 297T73 352Q73 381 84 407T118 452T174 483T249 495Q312 495 358 472T425 416L391 382Q383 396 369 408T335 430T292 445T245 451Q190 451 158 426T126 364Q126 339 145 323T193 294T255 269T317 240T365 200T384 143Q384 113 372 85T337 36T280 1T202 -12Z"  />
<glyph unicode="t" horiz-adv-x="275" d="M151 -12Q106 -12 81 7T55 69Q55 72 55 79T58 95L134 437H54L64 483H144L173 615H226L197 483H295L284 437H186L112 102Q110 92 110 81Q110 35 159 35Q173 35 187 40T210 53L220 11Q206 0 189 -6T151 -12Z"  />
<glyph unicode="u" horiz-adv-x="540" d="M186 483L114 156Q112 148 110 139T108 120Q108 75 138 55T215 35Q238 35 260 42T304 61T345 88T379 120L460 483H512L405 0H353L369 73Q353 57 334 42T292 15T245 -4T195 -12Q133 -12 94 17T54 106Q54 114 56 126T60 147L134 483H186Z"  />
<glyph unicode="v" horiz-adv-x="481" d="M157 0L60 483H116L197 61L466 483H527L216 0H157Z"  />
<glyph unicode="w" horiz-adv-x="719" d="M441 0L397 413L170 0H120L70 483H123L160 73L388 483H432L477 73L697 483H755L491 0H441Z"  />
<glyph unicode="x" horiz-adv-x="479" d="M349 0L236 213L29 0H-37L208 248L81 483H140L245 284L438 483H504L271 248L408 0H349Z"  />
<glyph unicode="y" horiz-adv-x="481" d="M-26 -136Q-18 -140 -6 -142T21 -145Q41 -145 58 -134T97 -90L154 -3L60 483H116L197 61L466 483H527L146 -106Q117 -151 85 -173T11 -196Q-21 -196 -46 -186L-26 -136Z"  />
<glyph unicode="z" horiz-adv-x="469" d="M2 0L10 43L381 437H99L109 483H462L453 441L80 46H368L359 0H2Z"  />
<glyph unicode="{" horiz-adv-x="249" d="M86 -190Q67 -190 49 -184T17 -164T-6 -134T-15 -93Q-15 -78 -12 -67L38 153Q39 158 39 162T40 170Q40 193 30 208T1 224L10 264Q40 264 56 285T78 335L127 554Q141 616 177 647T266 678H328L318 635H256Q223 635 201 614T171 554L120 327Q113 295 98 273T56 240Q72 232 78 218T85 186Q85 178 84 170T81 152L33 -66Q32 -71 32 -76T31 -88Q31 -114 47 -130T89 -147H145L135 -190H86Z"  />
<glyph unicode="|" horiz-adv-x="208" d="M103 -20V687H146V-20H103Z"  />
<glyph unicode="}" horiz-adv-x="249" d="M162 678Q181 678 199 672T231 652T253 621T262 581Q262 574 262 567T259 554L210 335Q209 330 209 326T208 317Q208 295 218 280T247 264L237 224Q208 224 192 203T170 153L121 -66Q107 -129 71 -159T-18 -190H-80L-70 -147H-9Q25 -147 47 -126T77 -67L128 161Q135 193 150 215T192 249Q176 257 170 271T163 302Q163 310 164 318T167 336L215 554Q216 559 216 564T217 575Q217 601 201 618T159 635H103L113 678H162Z"  />
<glyph unicode="~" horiz-adv-x="499" d="M564 662Q553 617 538 575T502 500T453 448T390 428Q356 428 339 442T312 479T300 526T291 573T274 609T240 624Q200 624 167 572T111 427L69 433Q79 479 94 521T131 595T180 646T242 665Q276 665 293 651T320 614T333 567T342 519T358 483T393 468Q433 468 466 520T522 667L564 662Z"  />
<glyph unicode="&#xA0;" horiz-adv-x="259" />
<glyph unicode="&#xA1;" horiz-adv-x="219" d="M144 309L48 -184H-20L103 309H144ZM158 493Q175 493 186 481T198 452Q198 432 184 419T150 405Q133 405 122 416T110 445Q110 465 124 479T158 493Z"  />
<glyph unicode="&#xA2;" horiz-adv-x="494" d="M201 -5Q131 10 89 63T46 202Q46 261 66 314T123 407T207 471T312 495L328 565H372L355 492Q401 485 434 464T487 407L447 377Q430 407 404 424T345 446L254 35H266Q307 35 340 52T397 97L427 61Q395 28 356 8T261 -12Q256 -12 252 -12T244 -11L224 -100H180L201 -5ZM101 201Q101 135 131 95T212 41L302 447Q255 444 218 423T155 367T115 290T101 201Z"  />
<glyph unicode="&#xA3;" horiz-adv-x="505" d="M32 309H164Q155 327 144 343T122 378T105 416T98 462Q98 503 116 542T166 611T240 659T333 677Q366 677 397 669T454 646T499 610T526 564L473 540Q463 578 425 602T335 627Q300 627 269 616T213 582T175 530T160 460Q160 435 167 415T183 378T204 344T224 309H371L362 267H236Q237 262 237 257T238 247Q238 220 227 194T199 146T161 105T121 75Q134 79 144 81T169 83Q194 83 215 76T255 61T294 46T336 39Q367 39 391 51T432 80L448 33Q424 13 396 0T334 -14Q300 -14 276 -7T231 9T186 25T129 33Q103 33 74 22T13 -7L1 41Q38 56 71 78T129 126T168 181T183 240Q183 253 180 267H23L32 309Z"  />
<glyph unicode="&#xA4;" horiz-adv-x="588" d="M297 98Q252 98 211 112T139 155L37 73L7 112L107 193Q79 238 79 300Q79 358 100 408T160 494L103 568L141 599L198 525Q228 545 263 555T338 566Q389 566 428 551T495 509L597 593L628 555L525 471Q554 424 554 364Q554 307 533 257T474 171L530 100L491 70L436 140Q374 98 297 98ZM136 305Q136 267 148 238T182 189T234 158T300 147Q343 147 379 165T442 212T484 280T499 358Q499 389 489 418T459 469T407 504T334 517Q290 517 254 499T191 452T151 384T136 305Z"  />
<glyph unicode="&#xA5;" horiz-adv-x="618" d="M229 0L257 126H-5L4 167H266L292 285H31L39 327H272L111 667H175L328 339L625 667H699L388 327H615L606 285H350L324 167H579L570 126H315L287 0H229Z"  />
<glyph unicode="&#xA6;" horiz-adv-x="208" d="M103 -20V296H146V-20H103ZM103 371V687H146V371H103Z"  />
<glyph unicode="&#xA7;" horiz-adv-x="461" d="M423 317Q423 272 393 233T295 176Q338 153 353 128T368 71Q368 42 356 15T321 -33T265 -68T188 -81Q118 -81 67 -60T-16 -1L22 32Q45 -2 89 -21T187 -40Q244 -40 279 -10T314 65Q314 92 295 109T248 140T187 165T125 193T78 232T59 291Q59 339 97 377T212 425Q168 442 141 468T113 537Q113 562 124 587T157 632T211 664T285 677Q350 677 397 657T474 602L438 572Q412 607 371 621T288 636Q234 636 200 610T165 545Q165 517 184 500T232 470T294 446T356 418T404 378T423 317ZM369 307Q369 326 361 341T338 367T305 386T264 403Q184 393 148 364T112 299Q112 279 121 264T149 238T192 216T249 195Q316 214 342 245T369 307Z"  />
<glyph unicode="&#xA8;" horiz-adv-x="262" d="M349 605Q349 588 337 576T307 564Q293 564 284 573T274 597Q274 614 286 626T316 638Q330 638 339 629T349 605ZM145 605Q145 588 133 576T103 564Q89 564 80 573T70 597Q70 614 82 626T112 638Q126 638 135 629T145 605Z"  />
<glyph unicode="&#xA9;" horiz-adv-x="778" d="M754 334Q754 263 727 200T653 90T543 16T408 -11Q337 -11 274 16T165 90T91 200T64 334Q64 406 91 468T164 578T274 652T408 679Q480 679 543 652T653 578T727 469T754 334ZM726 334Q726 400 701 457T633 558T532 626T408 651Q343 651 286 626T185 558T117 458T92 334Q92 269 117 211T185 110T285 42T408 17Q474 17 531 42T632 110T701 211T726 334ZM522 172Q495 149 462 135T389 120Q344 120 308 134T248 174T210 234T197 307Q197 359 217 403T270 479T345 530T433 549Q485 549 524 530T588 469L561 449Q543 484 510 501T433 519Q396 519 360 503T295 459T248 392T230 307Q230 275 241 247T273 197T323 163T389 150Q421 150 452 163T505 197L522 172Z"  />
<glyph unicode="&#xAA;" horiz-adv-x="409" d="M267 613Q239 613 215 601T174 566T146 516T136 456Q136 405 162 379T230 353Q265 353 291 370T338 410L372 562Q359 585 331 599T267 613ZM432 640L362 326H319L330 376Q307 347 280 333T217 318Q192 318 170 326T130 351T102 393T91 453Q91 491 104 526T139 589T193 632T261 648Q301 648 331 633T378 591L389 640H432Z"  />
<glyph unicode="&#xAB;" horiz-adv-x="402" d="M149 63L29 243L229 420H290L86 238L202 63H149ZM274 63L154 243L354 420H415L211 238L327 63H274Z"  />
<glyph unicode="&#xAC;" horiz-adv-x="499" d="M461 216H417L461 411H66L75 453H513L461 216Z"  />
<glyph unicode="&#xAD;" horiz-adv-x="300" d="M24 218L34 266H274L264 218H24Z"  />
<glyph unicode="&#xAE;" horiz-adv-x="494" d="M508 465Q508 421 492 383T446 315T378 270T295 253Q251 253 213 269T146 315T101 382T84 465Q84 509 100 548T146 615T213 660T296 677Q340 677 379 661T446 616T491 548T508 465ZM481 465Q481 504 467 537T427 596T367 635T295 650Q257 650 224 636T165 596T126 538T111 465Q111 427 125 394T165 335T223 295T295 280Q333 280 367 294T426 334T466 393T481 465ZM330 343L288 439H240L219 343H189L242 586H333Q359 586 380 570T402 522Q402 504 395 489T376 463T350 446T322 440L366 343H330ZM370 518Q370 538 358 548T328 558H266L246 468H315Q338 468 354 482T370 518Z"  />
<glyph unicode="&#xAF;" horiz-adv-x="363" d="M74 577L82 614H444L436 577H74Z"  />
<glyph unicode="&#xB0;" horiz-adv-x="282" d="M327 560Q327 536 318 515T293 479T256 454T210 445Q186 445 165 454T128 478T103 515T94 560Q94 584 103 605T128 642T165 667T210 677Q234 677 255 668T292 643T317 606T327 560ZM288 560Q288 576 282 590T265 615T240 632T210 638Q178 638 156 615T134 560Q134 528 155 506T209 484Q241 484 264 506T288 560Z"  />
<glyph unicode="&#xB1;" d="M288 323L239 105H195L243 323H46L55 364H252L299 576H343L297 364H494L484 323H288ZM-25 0L-17 41H422L413 0H-25Z"  />
<glyph unicode="&#xB2;" horiz-adv-x="384" d="M91 421L100 460Q163 498 216 531T307 596T368 658T390 720Q390 738 382 751T362 772T333 785T299 789Q228 789 186 742L163 772Q189 798 223 812T299 827Q323 827 347 822T391 804T423 771T436 722Q436 686 414 652T354 586T268 522T167 459H380L372 421H91Z"  />
<glyph unicode="&#xB3;" horiz-adv-x="384" d="M399 536Q399 513 390 492T362 453T317 425T256 414Q203 414 164 432T104 486L136 511Q155 482 186 467T255 452Q301 452 327 478T353 542Q353 571 324 589T249 608Q241 608 234 608T221 607L229 646Q240 645 257 645T288 644Q333 644 360 664T388 721Q388 753 359 771T290 789Q258 789 233 779T181 745L161 774Q184 795 219 811T292 827Q320 827 345 821T390 803T421 771T433 727Q433 680 401 653T321 622Q336 619 350 612T375 594T392 569T399 536Z"  />
<glyph unicode="&#xB4;" horiz-adv-x="216" d="M113 556H67L253 700H317L113 556Z"  />
<glyph unicode="&#xB5;" horiz-adv-x="553" d="M37 -184H-16L135 483H188L114 156Q106 123 110 100T128 62T161 40T204 33Q227 33 251 40T298 58T342 84T378 115L459 483H512L427 99Q420 70 428 53T461 35Q474 35 482 37L476 -9Q470 -11 461 -11T444 -12Q399 -12 383 12T371 74Q334 39 286 14T189 -12Q149 -12 125 3T88 44L37 -184Z"  />
<glyph unicode="&#xB6;" horiz-adv-x="449" d="M253 -100L415 630H322L160 -100H122L216 323Q188 323 163 334T120 367T90 416T79 479Q79 514 93 548T134 608T195 651T273 667H461L291 -100H253Z"  />
<glyph unicode="&#xB7;" horiz-adv-x="219" d="M106 201Q89 201 77 212T65 241Q65 261 79 274T114 288Q131 288 142 277T154 248Q154 228 140 215T106 201Z"  />
<glyph unicode="&#xB8;" horiz-adv-x="198" d="M15 -189Q-20 -189 -46 -179T-89 -152L-66 -122Q-49 -139 -27 -147T17 -156Q51 -156 67 -141T83 -105Q83 -90 73 -81T43 -72Q33 -72 24 -76T6 -89L-18 -73L31 11H69L28 -57Q43 -45 62 -45Q88 -45 104 -60T120 -102Q120 -140 92 -164T15 -189Z"  />
<glyph unicode="&#xB9;" horiz-adv-x="214" d="M147 421L221 758L144 692L122 722L241 821H281L193 421H147Z"  />
<glyph unicode="&#xBA;" horiz-adv-x="405" d="M237 318Q171 318 132 357T92 459Q92 497 106 531T144 592T200 633T271 648Q337 648 376 609T416 507Q416 469 402 435T364 374T308 333T237 318ZM237 355Q267 355 292 367T335 401T362 449T372 507Q372 552 344 581T270 610Q240 610 215 598T173 564T147 516T137 459Q137 413 164 384T237 355Z"  />
<glyph unicode="&#xBB;" horiz-adv-x="402" d="M130 420L250 240L50 63H-11L193 245L77 420H130ZM255 420L375 240L175 63H114L318 245L202 420H255Z"  />
<glyph unicode="&#xBC;" horiz-adv-x="742" d="M113 267L187 604L110 538L88 568L207 667H247L159 267H113ZM611 107L587 0H543L566 107H370L377 142L614 400H675L618 144H678L671 107H611ZM621 355L425 144H574L621 355ZM87 0H42L615 667H661L87 0Z"  />
<glyph unicode="&#xBD;" horiz-adv-x="781" d="M113 267L187 604L110 538L88 568L207 667H247L159 267H113ZM395 0L404 39Q467 77 520 110T611 175T672 237T694 299Q694 317 686 330T666 351T637 364T603 368Q532 368 490 321L467 351Q493 377 527 391T603 406Q627 406 651 401T695 383T727 350T740 301Q740 265 718 231T658 165T572 101T471 38H684L676 0H395ZM87 0H42L615 667H661L87 0Z"  />
<glyph unicode="&#xBE;" horiz-adv-x="859" d="M728 107L704 0H660L683 107H487L494 142L731 400H792L735 144H795L788 107H728ZM738 355L542 144H691L738 355ZM204 0H159L732 667H778L204 0ZM365 382Q365 359 356 338T328 299T283 271T222 260Q169 260 130 278T70 332L102 357Q121 328 152 313T221 298Q267 298 293 324T319 388Q319 417 290 435T215 454Q207 454 200 454T187 453L195 492Q206 491 223 491T254 490Q299 490 326 510T354 567Q354 599 325 617T256 635Q224 635 199 625T147 591L127 620Q150 641 185 657T258 673Q286 673 311 667T356 649T387 617T399 573Q399 526 367 499T287 468Q302 465 316 458T341 440T358 415T365 382Z"  />
<glyph unicode="&#xBF;" horiz-adv-x="393" d="M264 306Q290 274 290 235Q290 199 271 175T224 132T162 97T101 62T53 19T34 -42Q34 -87 70 -114T173 -142Q271 -142 340 -71L368 -109Q323 -154 274 -174T168 -194Q124 -194 88 -184T26 -154T-14 -108T-29 -49Q-29 -4 -9 26T40 79T104 118T168 152T218 188T238 237Q238 247 234 259T218 282L264 306ZM290 492Q307 492 318 481T330 452Q330 432 316 419T282 405Q265 405 254 416T242 445Q242 465 256 478T290 492Z"  />
<glyph unicode="&#xC0;" horiz-adv-x="647" d="M515 0L484 164H132L30 0H-39L381 667H452L578 0H515ZM406 606L162 216H478L406 606ZM439 723L299 867H361L483 723H439Z"  />
<glyph unicode="&#xC1;" horiz-adv-x="647" d="M515 0L484 164H132L30 0H-39L381 667H452L578 0H515ZM406 606L162 216H478L406 606ZM418 723H372L558 867H622L418 723Z"  />
<glyph unicode="&#xC2;" horiz-adv-x="647" d="M517 723L455 836L346 723H305L434 867H488L555 723H517ZM515 0L484 164H132L30 0H-39L381 667H452L578 0H515ZM406 606L162 216H478L406 606Z"  />
<glyph unicode="&#xC3;" horiz-adv-x="647" d="M515 0L484 164H132L30 0H-39L381 667H452L578 0H515ZM406 606L162 216H478L406 606ZM499 721Q471 721 458 737T435 772T415 808T382 824Q359 824 342 801T313 727H277Q283 755 292 779T316 822T348 850T389 861Q417 861 430 845T453 810T473 775T506 759Q529 759 546 781T575 855H612Q606 827 596 803T572 760T540 732T499 721Z"  />
<glyph unicode="&#xC4;" horiz-adv-x="647" d="M578 772Q578 755 566 743T536 731Q522 731 513 740T503 764Q503 781 515 793T545 805Q559 805 568 796T578 772ZM374 772Q374 755 362 743T332 731Q318 731 309 740T299 764Q299 781 311 793T341 805Q355 805 364 796T374 772ZM515 0L484 164H132L30 0H-39L381 667H452L578 0H515ZM406 606L162 216H478L406 606Z"  />
<glyph unicode="&#xC5;" horiz-adv-x="647" d="M515 0L484 164H132L30 0H-39L381 667H452L578 0H515ZM406 606L162 216H478L406 606ZM434 691Q396 691 372 715T347 778Q347 799 355 818T378 851T412 874T452 883Q490 883 514 859T539 796Q539 775 531 756T508 722T475 700T434 691ZM435 723Q464 723 485 743T507 793Q507 819 492 835T451 851Q422 851 401 831T380 781Q380 755 395 739T435 723Z"  />
<glyph unicode="&#xC6;" horiz-adv-x="939" d="M402 0L438 164H167L29 0H-40L528 667H972L961 615H596L541 368H899L887 316H529L471 52H836L825 0H402ZM535 601L208 216H450L535 601Z"  />
<glyph unicode="&#xC7;" horiz-adv-x="672" d="M308 -189Q273 -189 247 -179T204 -152L227 -122Q244 -139 266 -147T310 -156Q344 -156 360 -141T376 -105Q376 -90 366 -81T336 -72Q326 -72 317 -76T299 -89L275 -73L313 -8Q258 0 213 23T136 84T85 169T67 277Q67 368 98 442T182 568T300 649T437 678Q525 678 593 641T699 535L644 510Q609 573 554 599T433 626Q376 626 322 602T224 532T155 423T129 279Q129 225 146 181T194 106T269 57T370 40Q419 40 466 58T558 116L599 82Q548 33 488 11T367 -12Q362 -12 358 -12T348 -11L321 -57Q336 -45 355 -45Q381 -45 397 -60T413 -102Q413 -140 385 -164T308 -189Z"  />
<glyph unicode="&#xC8;" horiz-adv-x="564" d="M29 0L176 667H599L588 615H222L168 368H526L514 316H156L97 52H462L452 0H29ZM411 723L271 867H333L455 723H411Z"  />
<glyph unicode="&#xC9;" horiz-adv-x="564" d="M389 723H343L529 867H593L389 723ZM29 0L176 667H599L588 615H222L168 368H526L514 316H156L97 52H462L452 0H29Z"  />
<glyph unicode="&#xCA;" horiz-adv-x="564" d="M486 723L424 836L315 723H274L403 867H457L524 723H486ZM29 0L176 667H599L588 615H222L168 368H526L514 316H156L97 52H462L452 0H29Z"  />
<glyph unicode="&#xCB;" horiz-adv-x="564" d="M549 772Q549 755 537 743T507 731Q493 731 484 740T474 764Q474 781 486 793T516 805Q530 805 539 796T549 772ZM345 772Q345 755 333 743T303 731Q289 731 280 740T270 764Q270 781 282 793T312 805Q326 805 335 796T345 772ZM29 0L176 667H599L588 615H222L168 368H526L514 316H156L97 52H462L452 0H29Z"  />
<glyph unicode="&#xCC;" horiz-adv-x="223" d="M29 0L176 667H233L86 0H29ZM230 723L90 867H152L274 723H230Z"  />
<glyph unicode="&#xCD;" horiz-adv-x="223" d="M29 0L176 667H233L86 0H29ZM208 723H162L348 867H412L208 723Z"  />
<glyph unicode="&#xCE;" horiz-adv-x="223" d="M305 723L243 836L134 723H93L222 867H276L343 723H305ZM29 0L176 667H233L86 0H29Z"  />
<glyph unicode="&#xCF;" horiz-adv-x="223" d="M367 772Q367 755 355 743T325 731Q311 731 302 740T292 764Q292 781 304 793T334 805Q348 805 357 796T367 772ZM163 772Q163 755 151 743T121 731Q107 731 98 740T88 764Q88 781 100 793T130 805Q144 805 153 796T163 772ZM29 0L176 667H233L86 0H29Z"  />
<glyph unicode="&#xD0;" horiz-adv-x="721" d="M59 0L127 309H25L36 359H138L206 667H414Q470 667 519 646T605 587T663 497T685 383Q685 314 660 246T583 123T454 34T271 0H59ZM184 309L127 52H281Q360 52 423 78T532 150T601 255T625 381Q625 432 608 474T562 548T492 597T403 615H252L195 359H373L362 309H184Z"  />
<glyph unicode="&#xD1;" horiz-adv-x="699" d="M524 721Q496 721 483 737T460 772T440 808T407 824Q384 824 367 801T338 727H302Q308 755 317 779T341 822T373 850T414 861Q442 861 455 845T478 810T498 775T531 759Q554 759 571 781T600 855H637Q631 827 621 803T597 760T565 732T524 721ZM506 0L215 582L86 0H29L176 667H234L524 94L652 667H709L562 0H506Z"  />
<glyph unicode="&#xD2;" horiz-adv-x="764" d="M499 723L359 867H421L543 723H499ZM367 -12Q305 -12 250 7T155 62T91 153T67 277Q67 362 96 435T175 562T293 647T437 678Q499 678 553 659T648 603T712 513T736 389Q736 304 707 231T628 104T510 19T367 -12ZM370 40Q430 40 485 66T582 138T649 247T674 387Q674 445 655 490T602 565T525 610T432 626Q371 626 316 600T220 528T154 419T129 279Q129 220 148 176T200 101T276 56T370 40Z"  />
<glyph unicode="&#xD3;" horiz-adv-x="764" d="M477 723H431L617 867H681L477 723ZM367 -12Q305 -12 250 7T155 62T91 153T67 277Q67 362 96 435T175 562T293 647T437 678Q499 678 553 659T648 603T712 513T736 389Q736 304 707 231T628 104T510 19T367 -12ZM370 40Q430 40 485 66T582 138T649 247T674 387Q674 445 655 490T602 565T525 610T432 626Q371 626 316 600T220 528T154 419T129 279Q129 220 148 176T200 101T276 56T370 40Z"  />
<glyph unicode="&#xD4;" horiz-adv-x="764" d="M576 723L514 836L405 723H364L493 867H547L614 723H576ZM367 -12Q305 -12 250 7T155 62T91 153T67 277Q67 362 96 435T175 562T293 647T437 678Q499 678 553 659T648 603T712 513T736 389Q736 304 707 231T628 104T510 19T367 -12ZM370 40Q430 40 485 66T582 138T649 247T674 387Q674 445 655 490T602 565T525 610T432 626Q371 626 316 600T220 528T154 419T129 279Q129 220 148 176T200 101T276 56T370 40Z"  />
<glyph unicode="&#xD5;" horiz-adv-x="764" d="M367 -12Q305 -12 250 7T155 62T91 153T67 277Q67 362 96 435T175 562T293 647T437 678Q499 678 553 659T648 603T712 513T736 389Q736 304 707 231T628 104T510 19T367 -12ZM370 40Q430 40 485 66T582 138T649 247T674 387Q674 445 655 490T602 565T525 610T432 626Q371 626 316 600T220 528T154 419T129 279Q129 220 148 176T200 101T276 56T370 40ZM558 721Q530 721 517 737T494 772T474 808T441 824Q418 824 401 801T372 727H336Q342 755 351 779T375 822T407 850T448 861Q476 861 489 845T512 810T532 775T565 759Q588 759 605 781T634 855H671Q665 827 655 803T631 760T599 732T558 721Z"  />
<glyph unicode="&#xD6;" horiz-adv-x="764" d="M638 772Q638 755 626 743T596 731Q582 731 573 740T563 764Q563 781 575 793T605 805Q619 805 628 796T638 772ZM434 772Q434 755 422 743T392 731Q378 731 369 740T359 764Q359 781 371 793T401 805Q415 805 424 796T434 772ZM367 -12Q305 -12 250 7T155 62T91 153T67 277Q67 362 96 435T175 562T293 647T437 678Q499 678 553 659T648 603T712 513T736 389Q736 304 707 231T628 104T510 19T367 -12ZM370 40Q430 40 485 66T582 138T649 247T674 387Q674 445 655 490T602 565T525 610T432 626Q371 626 316 600T220 528T154 419T129 279Q129 220 148 176T200 101T276 56T370 40Z"  />
<glyph unicode="&#xD7;" d="M264 305L78 152L52 183L239 337L122 487L155 514L271 363L459 516L484 484L297 331L413 181L381 155L264 305Z"  />
<glyph unicode="&#xD8;" horiz-adv-x="764" d="M367 -12Q313 -12 265 2T178 44L140 0H89L148 69Q110 106 89 158T67 277Q67 362 96 435T175 562T293 647T437 678Q490 678 537 664T622 624L659 667H711L653 599Q691 562 713 510T736 389Q736 304 707 231T628 104T510 19T367 -12ZM370 40Q430 40 485 66T582 138T649 247T674 387Q674 441 658 482T614 553L215 88Q247 64 286 52T370 40ZM129 279Q129 226 144 185T186 114L584 580Q520 626 432 626Q371 626 316 600T220 528T154 419T129 279Z"  />
<glyph unicode="&#xD9;" horiz-adv-x="686" d="M327 -12Q270 -12 224 3T147 46T98 115T81 205Q81 234 86 256L176 667H234L144 257Q142 251 140 239T138 212Q138 136 187 88T327 40Q376 40 412 55T475 98T519 166T548 257L638 667H696L606 256Q592 194 571 145T517 61T438 7T327 -12ZM459 723L319 867H381L503 723H459Z"  />
<glyph unicode="&#xDA;" horiz-adv-x="686" d="M440 723H394L580 867H644L440 723ZM327 -12Q270 -12 224 3T147 46T98 115T81 205Q81 234 86 256L176 667H234L144 257Q142 251 140 239T138 212Q138 136 187 88T327 40Q376 40 412 55T475 98T519 166T548 257L638 667H696L606 256Q592 194 571 145T517 61T438 7T327 -12Z"  />
<glyph unicode="&#xDB;" horiz-adv-x="686" d="M536 723L474 836L365 723H324L453 867H507L574 723H536ZM327 -12Q270 -12 224 3T147 46T98 115T81 205Q81 234 86 256L176 667H234L144 257Q142 251 140 239T138 212Q138 136 187 88T327 40Q376 40 412 55T475 98T519 166T548 257L638 667H696L606 256Q592 194 571 145T517 61T438 7T327 -12Z"  />
<glyph unicode="&#xDC;" horiz-adv-x="686" d="M599 772Q599 755 587 743T557 731Q543 731 534 740T524 764Q524 781 536 793T566 805Q580 805 589 796T599 772ZM395 772Q395 755 383 743T353 731Q339 731 330 740T320 764Q320 781 332 793T362 805Q376 805 385 796T395 772ZM327 -12Q270 -12 224 3T147 46T98 115T81 205Q81 234 86 256L176 667H234L144 257Q142 251 140 239T138 212Q138 136 187 88T327 40Q376 40 412 55T475 98T519 166T548 257L638 667H696L606 256Q592 194 571 145T517 61T438 7T327 -12Z"  />
<glyph unicode="&#xDD;" horiz-adv-x="618" d="M226 0L289 285L108 667H172L325 339L622 667H696L347 285L284 0H226ZM404 723H358L544 867H608L404 723Z"  />
<glyph unicode="&#xDE;" horiz-adv-x="571" d="M29 0L176 667H233L206 543H387Q423 543 454 530T508 495T544 442T557 376Q557 337 543 298T500 226T423 174T310 153H120L86 0H29ZM316 205Q362 205 396 219T452 256T485 310T496 372Q496 397 486 419T460 457T421 482T373 491H195L132 205H316Z"  />
<glyph unicode="&#xDF;" horiz-adv-x="578" d="M537 141Q537 113 526 86T492 37T436 2T357 -12Q289 -12 243 9T158 78L195 111Q221 77 260 55T358 32Q389 32 412 41T452 64T476 97T484 134Q484 160 466 176T419 204T359 228T298 254T252 290T233 346Q233 380 248 402T285 441T334 469T383 493T421 519T436 556Q436 574 426 587T401 610T368 625T331 630Q281 630 243 598T192 509L79 0H27L139 509Q147 544 163 575T204 628T260 664T331 677Q361 677 389 669T440 647T476 611T490 564Q490 532 475 511T437 475T388 449T339 425T301 395T286 353Q286 329 304 314T351 286T411 263T472 236T518 198T537 141Z"  />
<glyph unicode="&#xE0;" horiz-adv-x="571" d="M299 495Q359 495 403 469T473 401L490 483H543L436 0H383L400 73Q370 35 328 12T234 -12Q192 -12 158 1T98 40T59 102T45 186Q45 247 63 303T114 401T195 469T299 495ZM303 448Q258 448 221 427T157 370T117 289T102 195Q102 120 142 78T248 35Q273 35 297 42T343 62T382 92T412 128L463 360Q445 396 404 422T303 448ZM358 556L218 700H280L402 556H358Z"  />
<glyph unicode="&#xE1;" horiz-adv-x="571" d="M299 495Q359 495 403 469T473 401L490 483H543L436 0H383L400 73Q370 35 328 12T234 -12Q192 -12 158 1T98 40T59 102T45 186Q45 247 63 303T114 401T195 469T299 495ZM303 448Q258 448 221 427T157 370T117 289T102 195Q102 120 142 78T248 35Q273 35 297 42T343 62T382 92T412 128L463 360Q445 396 404 422T303 448ZM336 556H290L476 700H540L336 556Z"  />
<glyph unicode="&#xE2;" horiz-adv-x="571" d="M299 495Q359 495 403 469T473 401L490 483H543L436 0H383L400 73Q370 35 328 12T234 -12Q192 -12 158 1T98 40T59 102T45 186Q45 247 63 303T114 401T195 469T299 495ZM303 448Q258 448 221 427T157 370T117 289T102 195Q102 120 142 78T248 35Q273 35 297 42T343 62T382 92T412 128L463 360Q445 396 404 422T303 448ZM434 556L372 669L263 556H222L351 700H405L472 556H434Z"  />
<glyph unicode="&#xE3;" horiz-adv-x="571" d="M299 495Q359 495 403 469T473 401L490 483H543L436 0H383L400 73Q370 35 328 12T234 -12Q192 -12 158 1T98 40T59 102T45 186Q45 247 63 303T114 401T195 469T299 495ZM303 448Q258 448 221 427T157 370T117 289T102 195Q102 120 142 78T248 35Q273 35 297 42T343 62T382 92T412 128L463 360Q445 396 404 422T303 448ZM417 554Q389 554 376 570T353 605T333 641T300 657Q277 657 260 634T231 560H195Q201 588 210 612T234 655T266 683T307 694Q335 694 348 678T371 643T391 608T424 592Q447 592 464 614T493 688H530Q524 660 514 636T490 593T458 565T417 554Z"  />
<glyph unicode="&#xE4;" horiz-adv-x="571" d="M299 495Q359 495 403 469T473 401L490 483H543L436 0H383L400 73Q370 35 328 12T234 -12Q192 -12 158 1T98 40T59 102T45 186Q45 247 63 303T114 401T195 469T299 495ZM303 448Q258 448 221 427T157 370T117 289T102 195Q102 120 142 78T248 35Q273 35 297 42T343 62T382 92T412 128L463 360Q445 396 404 422T303 448ZM497 605Q497 588 485 576T455 564Q441 564 432 573T422 597Q422 614 434 626T464 638Q478 638 487 629T497 605ZM293 605Q293 588 281 576T251 564Q237 564 228 573T218 597Q218 614 230 626T260 638Q274 638 283 629T293 605Z"  />
<glyph unicode="&#xE5;" horiz-adv-x="571" d="M299 495Q359 495 403 469T473 401L490 483H543L436 0H383L400 73Q370 35 328 12T234 -12Q192 -12 158 1T98 40T59 102T45 186Q45 247 63 303T114 401T195 469T299 495ZM303 448Q258 448 221 427T157 370T117 289T102 195Q102 120 142 78T248 35Q273 35 297 42T343 62T382 92T412 128L463 360Q445 396 404 422T303 448ZM356 545Q318 545 294 569T269 632Q269 653 277 672T300 705T334 728T374 737Q412 737 436 713T461 650Q461 629 453 610T430 576T397 554T356 545ZM357 577Q386 577 407 597T429 647Q429 673 414 689T373 705Q344 705 323 685T302 635Q302 609 317 593T357 577Z"  />
<glyph unicode="&#xE6;" horiz-adv-x="948" d="M303 448Q258 448 221 427T157 370T117 289T102 195Q102 120 142 78T248 35Q273 35 297 42T343 62T382 92T412 128L463 360Q445 396 404 422T303 448ZM436 0H383L400 73Q370 35 328 12T234 -12Q192 -12 158 1T98 40T59 102T45 186Q45 247 63 303T114 401T195 469T299 495Q359 495 403 469T473 401L490 483H543L523 391Q536 410 555 428T599 462T651 486T710 495Q757 495 792 479T852 436T888 370T900 288Q900 271 898 253T893 225H489Q488 220 488 212T487 197Q487 164 498 134T531 82T587 46T664 33Q701 33 737 46T805 86L826 47Q793 22 752 5T665 -12Q581 -12 531 28T466 135L436 0ZM849 266Q850 270 850 276T850 288Q850 323 840 353T811 404T762 438T694 450Q658 450 625 435T564 395T519 337T494 266H849Z"  />
<glyph unicode="&#xE7;" horiz-adv-x="494" d="M207 -189Q172 -189 146 -179T103 -152L126 -122Q143 -139 165 -147T209 -156Q243 -156 259 -141T275 -105Q275 -90 265 -81T235 -72Q225 -72 216 -76T198 -89L174 -73L212 -8Q137 6 92 59T46 202Q46 262 66 315T123 408T208 471T314 495Q377 495 419 472T487 407L447 377Q426 414 391 431T316 448Q266 448 226 428T159 373T116 294T101 201Q101 160 113 129T148 77T200 46T266 35Q307 35 340 52T397 97L427 61Q395 28 356 8T261 -12H247L220 -57Q235 -45 254 -45Q280 -45 296 -60T312 -102Q312 -140 284 -164T207 -189Z"  />
<glyph unicode="&#xE8;" horiz-adv-x="567" d="M276 -12Q222 -12 179 3T107 47T62 114T46 201Q46 261 67 314T124 408T209 471T314 495Q362 495 400 479T465 435T505 369T519 286Q519 270 516 252T511 225H103Q102 220 102 212T101 197Q101 164 112 134T145 82T200 46T278 33Q315 33 353 46T424 85L444 47Q412 22 368 5T276 -12ZM468 266Q469 270 469 276T469 288Q469 323 459 353T428 404T377 438T308 450Q272 450 239 435T178 395T133 337T108 266H468ZM365 556L225 700H287L409 556H365Z"  />
<glyph unicode="&#xE9;" horiz-adv-x="567" d="M344 556H298L484 700H548L344 556ZM276 -12Q222 -12 179 3T107 47T62 114T46 201Q46 261 67 314T124 408T209 471T314 495Q362 495 400 479T465 435T505 369T519 286Q519 270 516 252T511 225H103Q102 220 102 212T101 197Q101 164 112 134T145 82T200 46T278 33Q315 33 353 46T424 85L444 47Q412 22 368 5T276 -12ZM468 266Q469 270 469 276T469 288Q469 323 459 353T428 404T377 438T308 450Q272 450 239 435T178 395T133 337T108 266H468Z"  />
<glyph unicode="&#xEA;" horiz-adv-x="567" d="M441 556L379 669L270 556H229L358 700H412L479 556H441ZM276 -12Q222 -12 179 3T107 47T62 114T46 201Q46 261 67 314T124 408T209 471T314 495Q362 495 400 479T465 435T505 369T519 286Q519 270 516 252T511 225H103Q102 220 102 212T101 197Q101 164 112 134T145 82T200 46T278 33Q315 33 353 46T424 85L444 47Q412 22 368 5T276 -12ZM468 266Q469 270 469 276T469 288Q469 323 459 353T428 404T377 438T308 450Q272 450 239 435T178 395T133 337T108 266H468Z"  />
<glyph unicode="&#xEB;" horiz-adv-x="567" d="M503 605Q503 588 491 576T461 564Q447 564 438 573T428 597Q428 614 440 626T470 638Q484 638 493 629T503 605ZM299 605Q299 588 287 576T257 564Q243 564 234 573T224 597Q224 614 236 626T266 638Q280 638 289 629T299 605ZM276 -12Q222 -12 179 3T107 47T62 114T46 201Q46 261 67 314T124 408T209 471T314 495Q362 495 400 479T465 435T505 369T519 286Q519 270 516 252T511 225H103Q102 220 102 212T101 197Q101 164 112 134T145 82T200 46T278 33Q315 33 353 46T424 85L444 47Q412 22 368 5T276 -12ZM468 266Q469 270 469 276T469 288Q469 323 459 353T428 404T377 438T308 450Q272 450 239 435T178 395T133 337T108 266H468Z"  />
<glyph unicode="&#xEC;" horiz-adv-x="214" d="M27 0L134 483H186L79 0H27ZM189 556L49 700H111L233 556H189Z"  />
<glyph unicode="&#xED;" horiz-adv-x="214" d="M166 556H120L306 700H370L166 556ZM27 0L134 483H186L79 0H27Z"  />
<glyph unicode="&#xEE;" horiz-adv-x="214" d="M265 556L203 669L94 556H53L182 700H236L303 556H265ZM27 0L134 483H186L79 0H27Z"  />
<glyph unicode="&#xEF;" horiz-adv-x="214" d="M327 605Q327 588 315 576T285 564Q271 564 262 573T252 597Q252 614 264 626T294 638Q308 638 317 629T327 605ZM123 605Q123 588 111 576T81 564Q67 564 58 573T48 597Q48 614 60 626T90 638Q104 638 113 629T123 605ZM27 0L134 483H186L79 0H27Z"  />
<glyph unicode="&#xF0;" horiz-adv-x="571" d="M180 555L317 596Q285 625 247 654L286 694Q311 675 334 656T378 614L495 649L504 617L404 587Q460 523 492 450T524 301Q524 236 505 179T450 80T367 13T261 -12Q213 -12 174 3T106 46T62 111T46 193Q46 254 66 307T120 401T201 464T299 487Q322 487 346 482T392 464T434 431T467 382Q447 434 417 480T345 569L189 523L180 555ZM262 35Q304 35 340 54T405 107T449 185T465 280Q465 308 456 336T428 388T378 425T304 440Q263 440 227 422T162 371T118 295T102 200Q102 164 112 134T143 82T194 48T262 35Z"  />
<glyph unicode="&#xF1;" horiz-adv-x="540" d="M353 0L425 328Q427 335 429 344T431 363Q431 408 401 428T326 448Q302 448 279 441T235 422T194 395T159 364L79 0H27L134 483H186L170 410Q186 426 205 441T247 468T294 487T344 495Q406 495 445 466T485 377Q485 370 483 357T479 336L405 0H353ZM410 554Q382 554 369 570T346 605T326 641T293 657Q270 657 253 634T224 560H188Q194 588 203 612T227 655T259 683T300 694Q328 694 341 678T364 643T384 608T417 592Q440 592 457 614T486 688H523Q517 660 507 636T483 593T451 565T410 554Z"  />
<glyph unicode="&#xF2;" horiz-adv-x="571" d="M258 -12Q209 -12 170 3T103 46T60 113T45 200Q45 257 65 310T120 405T205 470T311 495Q360 495 399 480T466 437T509 370T524 283Q524 226 504 173T449 78T364 13T258 -12ZM259 35Q304 35 342 56T408 111T451 190T467 281Q467 357 426 402T310 448Q265 448 227 427T161 372T118 293T102 202Q102 126 143 81T259 35ZM367 556L227 700H289L411 556H367Z"  />
<glyph unicode="&#xF3;" horiz-adv-x="571" d="M344 556H298L484 700H548L344 556ZM258 -12Q209 -12 170 3T103 46T60 113T45 200Q45 257 65 310T120 405T205 470T311 495Q360 495 399 480T466 437T509 370T524 283Q524 226 504 173T449 78T364 13T258 -12ZM259 35Q304 35 342 56T408 111T451 190T467 281Q467 357 426 402T310 448Q265 448 227 427T161 372T118 293T102 202Q102 126 143 81T259 35Z"  />
<glyph unicode="&#xF4;" horiz-adv-x="571" d="M442 556L380 669L271 556H230L359 700H413L480 556H442ZM258 -12Q209 -12 170 3T103 46T60 113T45 200Q45 257 65 310T120 405T205 470T311 495Q360 495 399 480T466 437T509 370T524 283Q524 226 504 173T449 78T364 13T258 -12ZM259 35Q304 35 342 56T408 111T451 190T467 281Q467 357 426 402T310 448Q265 448 227 427T161 372T118 293T102 202Q102 126 143 81T259 35Z"  />
<glyph unicode="&#xF5;" horiz-adv-x="571" d="M258 -12Q209 -12 170 3T103 46T60 113T45 200Q45 257 65 310T120 405T205 470T311 495Q360 495 399 480T466 437T509 370T524 283Q524 226 504 173T449 78T364 13T258 -12ZM259 35Q304 35 342 56T408 111T451 190T467 281Q467 357 426 402T310 448Q265 448 227 427T161 372T118 293T102 202Q102 126 143 81T259 35ZM425 554Q397 554 384 570T361 605T341 641T308 657Q285 657 268 634T239 560H203Q209 588 218 612T242 655T274 683T315 694Q343 694 356 678T379 643T399 608T432 592Q455 592 472 614T501 688H538Q532 660 522 636T498 593T466 565T425 554Z"  />
<glyph unicode="&#xF6;" horiz-adv-x="571" d="M505 605Q505 588 493 576T463 564Q449 564 440 573T430 597Q430 614 442 626T472 638Q486 638 495 629T505 605ZM301 605Q301 588 289 576T259 564Q245 564 236 573T226 597Q226 614 238 626T268 638Q282 638 291 629T301 605ZM258 -12Q209 -12 170 3T103 46T60 113T45 200Q45 257 65 310T120 405T205 470T311 495Q360 495 399 480T466 437T509 370T524 283Q524 226 504 173T449 78T364 13T258 -12ZM259 35Q304 35 342 56T408 111T451 190T467 281Q467 357 426 402T310 448Q265 448 227 427T161 372T118 293T102 202Q102 126 143 81T259 35Z"  />
<glyph unicode="&#xF7;" horiz-adv-x="511" d="M45 316L54 358H507L498 316H45ZM228 100Q213 100 203 110T193 136Q193 153 205 165T236 178Q251 178 261 168T272 142Q272 124 259 112T228 100ZM315 492Q300 492 290 502T279 528Q279 545 292 557T322 570Q337 570 347 560T358 534Q358 516 346 504T315 492Z"  />
<glyph unicode="&#xF8;" horiz-adv-x="571" d="M19 0L85 66Q45 120 45 200Q45 257 65 310T120 405T205 470T311 495Q401 495 458 444L496 483H542L481 421Q524 366 524 283Q524 226 504 173T449 78T364 13T258 -12Q163 -12 106 42L65 0H19ZM259 35Q304 35 342 56T408 111T451 190T467 281Q467 340 441 381L144 80Q186 35 259 35ZM102 202Q102 144 124 106L421 407Q401 427 373 437T310 448Q265 448 227 427T161 372T118 293T102 202Z"  />
<glyph unicode="&#xF9;" horiz-adv-x="540" d="M186 483L114 156Q112 148 110 139T108 120Q108 75 138 55T215 35Q238 35 260 42T304 61T345 88T379 120L460 483H512L405 0H353L369 73Q353 57 334 42T292 15T245 -4T195 -12Q133 -12 94 17T54 106Q54 114 56 126T60 147L134 483H186ZM350 556L210 700H272L394 556H350Z"  />
<glyph unicode="&#xFA;" horiz-adv-x="540" d="M328 556H282L468 700H532L328 556ZM186 483L114 156Q112 148 110 139T108 120Q108 75 138 55T215 35Q238 35 260 42T304 61T345 88T379 120L460 483H512L405 0H353L369 73Q353 57 334 42T292 15T245 -4T195 -12Q133 -12 94 17T54 106Q54 114 56 126T60 147L134 483H186Z"  />
<glyph unicode="&#xFB;" horiz-adv-x="540" d="M426 556L364 669L255 556H214L343 700H397L464 556H426ZM186 483L114 156Q112 148 110 139T108 120Q108 75 138 55T215 35Q238 35 260 42T304 61T345 88T379 120L460 483H512L405 0H353L369 73Q353 57 334 42T292 15T245 -4T195 -12Q133 -12 94 17T54 106Q54 114 56 126T60 147L134 483H186Z"  />
<glyph unicode="&#xFC;" horiz-adv-x="540" d="M488 605Q488 588 476 576T446 564Q432 564 423 573T413 597Q413 614 425 626T455 638Q469 638 478 629T488 605ZM284 605Q284 588 272 576T242 564Q228 564 219 573T209 597Q209 614 221 626T251 638Q265 638 274 629T284 605ZM186 483L114 156Q112 148 110 139T108 120Q108 75 138 55T215 35Q238 35 260 42T304 61T345 88T379 120L460 483H512L405 0H353L369 73Q353 57 334 42T292 15T245 -4T195 -12Q133 -12 94 17T54 106Q54 114 56 126T60 147L134 483H186Z"  />
<glyph unicode="&#xFD;" horiz-adv-x="481" d="M-26 -136Q-18 -140 -6 -142T21 -145Q41 -145 58 -134T97 -90L154 -3L60 483H116L197 61L466 483H527L146 -106Q117 -151 85 -173T11 -196Q-21 -196 -46 -186L-26 -136ZM296 556H250L436 700H500L296 556Z"  />
<glyph unicode="&#xFE;" horiz-adv-x="567" d="M271 -12Q211 -12 167 14T97 82L38 -184H-14L174 667H226L170 410Q199 448 241 471T336 495Q377 495 411 482T471 443T510 380T524 296Q524 236 506 180T455 82T375 14T271 -12ZM266 35Q312 35 349 56T412 113T452 194T467 287Q467 362 427 405T321 448Q295 448 271 441T226 420T188 391T157 355L106 123Q124 87 165 61T266 35Z"  />
<glyph unicode="&#xFF;" horiz-adv-x="481" d="M-26 -136Q-18 -140 -6 -142T21 -145Q41 -145 58 -134T97 -90L154 -3L60 483H116L197 61L466 483H527L146 -106Q117 -151 85 -173T11 -196Q-21 -196 -46 -186L-26 -136ZM456 605Q456 588 444 576T414 564Q400 564 391 573T381 597Q381 614 393 626T423 638Q437 638 446 629T456 605ZM252 605Q252 588 240 576T210 564Q196 564 187 573T177 597Q177 614 189 626T219 638Q233 638 242 629T252 605Z"  />
<glyph unicode="&#x110;" horiz-adv-x="721" d="M59 0L127 309H25L36 359H138L206 667H414Q470 667 519 646T605 587T663 497T685 383Q685 314 660 246T583 123T454 34T271 0H59ZM184 309L127 52H281Q360 52 423 78T532 150T601 255T625 381Q625 432 608 474T562 548T492 597T403 615H252L195 359H373L362 309H184Z"  />
<glyph unicode="&#x131;" horiz-adv-x="214" d="M27 0L134 483H186L79 0H27Z"  />
<glyph unicode="&#x152;" horiz-adv-x="1115" d="M578 0L603 114Q561 56 497 22T348 -12Q285 -12 233 9T145 69T88 160T67 277Q67 365 97 439T179 565T299 647T442 677Q482 677 520 668T591 639T649 586T690 505L725 667H1148L1137 615H772L717 368H1075L1063 316H705L647 52H1012L1001 0H578ZM672 425Q658 522 596 573T439 625Q376 625 320 599T221 527T154 417T129 279Q129 224 146 180T194 104T268 57T364 40Q402 40 439 50T509 80T571 129T621 194L672 425Z"  />
<glyph unicode="&#x153;" horiz-adv-x="975" d="M516 225Q514 215 514 197Q514 164 525 134T558 82T612 46T689 33Q728 33 766 47T833 85L854 47Q821 21 778 5T687 -12Q637 -12 599 3T535 41T495 90T477 139Q465 118 447 92T403 43T340 4T256 -12Q209 -12 171 2T104 44T61 110T45 200Q45 257 64 310T119 404T202 470T309 495Q357 495 392 479T451 440T487 390T502 344Q514 365 533 391T579 440T642 479T725 495Q770 495 807 481T871 439T913 373T928 286Q928 270 926 254T920 225H516ZM877 266Q878 271 878 275T879 288Q879 322 869 351T839 403T789 437T720 450Q679 450 645 433T584 388T542 329T521 266H877ZM463 281Q463 325 450 356T416 408T366 438T308 448Q264 448 227 428T162 374T118 296T102 202Q102 127 142 81T257 35Q301 35 338 55T404 109T447 187T463 281Z"  />
<glyph unicode="&#x160;" horiz-adv-x="581" d="M375 723L307 867H344L406 754L515 867H557L429 723H375ZM279 -12Q236 -12 197 -3T124 21T65 58T24 105L66 146Q101 97 156 69T284 40Q329 40 360 53T412 88T442 135T452 185Q452 222 428 246T366 288T286 324T205 362T144 414T119 492Q119 530 136 563T184 622T255 663T344 678Q421 678 482 650T574 574L531 534Q499 581 448 603T339 626Q306 626 277 616T227 587T194 546T181 498Q181 464 205 442T267 402T348 366T428 326T490 271T515 192Q515 154 500 118T455 53T381 6T279 -12Z"  />
<glyph unicode="&#x161;" horiz-adv-x="459" d="M270 556L202 700H239L301 587L410 700H452L324 556H270ZM202 -12Q69 -12 8 73L45 109Q64 79 105 56T203 32Q233 32 256 40T296 62T322 94T331 132Q331 158 312 175T264 206T202 232T140 260T92 297T73 352Q73 381 84 407T118 452T174 483T249 495Q312 495 358 472T425 416L391 382Q383 396 369 408T335 430T292 445T245 451Q190 451 158 426T126 364Q126 339 145 323T193 294T255 269T317 240T365 200T384 143Q384 113 372 85T337 36T280 1T202 -12Z"  />
<glyph unicode="&#x178;" horiz-adv-x="618" d="M565 772Q565 755 553 743T523 731Q509 731 500 740T490 764Q490 781 502 793T532 805Q546 805 555 796T565 772ZM361 772Q361 755 349 743T319 731Q305 731 296 740T286 764Q286 781 298 793T328 805Q342 805 351 796T361 772ZM226 0L289 285L108 667H172L325 339L622 667H696L347 285L284 0H226Z"  />
<glyph unicode="&#x17D;" horiz-adv-x="581" d="M370 723L302 867H339L401 754L510 867H552L424 723H370ZM-4 0L7 50L529 615H133L143 667H617L607 618L84 52H488L477 0H-4Z"  />
<glyph unicode="&#x17E;" horiz-adv-x="469" d="M274 556L206 700H243L305 587L414 700H456L328 556H274ZM2 0L10 43L381 437H99L109 483H462L453 441L80 46H368L359 0H2Z"  />
<glyph unicode="&#x192;" horiz-adv-x="422" d="M-22 -161L72 260H-2V309H82L131 530Q147 599 183 638T280 677Q309 677 332 670T379 639L350 599Q338 613 322 619T289 625Q249 625 224 598T188 523L140 309H291V260H130L37 -161H-22Z"  />
<glyph unicode="&#x2C6;" horiz-adv-x="250" d="M281 556L219 669L110 556H69L198 700H252L319 556H281Z"  />
<glyph unicode="&#x2C7;" horiz-adv-x="250" d="M169 556L101 700H138L200 587L309 700H351L223 556H169Z"  />
<glyph unicode="&#x2DA;" horiz-adv-x="190" d="M173 548Q135 548 111 572T86 635Q86 656 94 675T117 708T151 731T191 740Q229 740 253 716T278 653Q278 632 270 613T247 579T214 557T173 548ZM174 580Q203 580 224 600T246 650Q246 676 231 692T190 708Q161 708 140 688T119 638Q119 612 134 596T174 580Z"  />
<glyph unicode="&#x2DC;" horiz-adv-x="307" d="M292 554Q264 554 251 570T228 605T208 641T175 657Q152 657 135 634T106 560H70Q76 588 85 612T109 655T141 683T182 694Q210 694 223 678T246 643T266 608T299 592Q322 592 339 614T368 688H405Q399 660 389 636T365 593T333 565T292 554Z"  />
<glyph unicode="&#x2013;" horiz-adv-x="593" d="M24 218L34 266H567L557 218H24Z"  />
<glyph unicode="&#x2014;" horiz-adv-x="833" d="M24 218L34 266H807L797 218H24Z"  />
<glyph unicode="&#x2018;" horiz-adv-x="219" d="M116 531Q116 552 124 573T147 614T180 650T219 677L243 651Q215 637 194 614T165 567H172Q186 567 196 557T206 530Q206 510 192 497T159 483Q141 483 129 495T116 531Z"  />
<glyph unicode="&#x2019;" horiz-adv-x="219" d="M242 629Q242 608 234 587T211 546T178 510T139 483L115 509Q143 523 164 546T193 593H186Q172 593 162 603T152 629Q152 649 166 663T199 677Q217 677 229 665T242 629Z"  />
<glyph unicode="&#x201A;" horiz-adv-x="219" d="M109 30Q109 9 101 -13T78 -54T45 -90T6 -117L-18 -90Q10 -76 31 -53T60 -6H53Q39 -6 29 4T19 30Q19 50 33 64T66 78Q84 78 96 66T109 30Z"  />
<glyph unicode="&#x201C;" horiz-adv-x="360" d="M267 531Q267 552 275 573T298 614T330 650T369 677L393 651Q366 637 344 614T315 567H322Q336 567 346 557T357 530Q357 510 343 497T309 483Q291 483 279 495T267 531ZM126 531Q126 552 134 573T157 614T189 650T228 677L253 651Q225 637 204 614T175 567H182Q196 567 206 557T216 530Q216 510 202 497T168 483Q151 483 139 495T126 531Z"  />
<glyph unicode="&#x201D;" horiz-adv-x="360" d="M242 629Q242 608 234 587T211 546T178 510T139 483L115 509Q143 523 164 546T193 593H186Q172 593 162 603T152 629Q152 649 166 663T199 677Q217 677 229 665T242 629ZM382 629Q382 608 374 587T351 546T319 510T280 483L256 509Q284 523 305 546T334 593H327Q313 593 303 603T293 629Q293 649 307 663T340 677Q358 677 370 665T382 629Z"  />
<glyph unicode="&#x201E;" horiz-adv-x="360" d="M109 30Q109 9 101 -13T78 -54T45 -90T6 -117L-18 -90Q10 -76 31 -53T60 -6H53Q39 -6 29 4T19 30Q19 50 33 64T66 78Q84 78 96 66T109 30ZM249 30Q249 9 241 -13T218 -54T186 -90T147 -117L123 -90Q150 -76 172 -53T201 -6H194Q180 -6 170 4T159 30Q159 50 173 64T207 78Q225 78 237 66T249 30Z"  />
<glyph unicode="&#x2020;" horiz-adv-x="257" d="M209 539L166 327H127L178 539L88 535L96 570L184 567L205 677H244L215 567L305 570L297 535L209 539Z"  />
<glyph unicode="&#x2021;" horiz-adv-x="257" d="M297 535L209 539L160 318L250 322L242 287L154 290L133 180H94L123 290L33 287L41 322L128 318L178 539L88 535L96 570L184 567L205 677H244L215 567L305 570L297 535Z"  />
<glyph unicode="&#x2022;" horiz-adv-x="358" d="M283 252Q283 229 274 209T248 173T211 149T167 140Q128 140 102 166T75 232Q75 255 84 275T109 311T146 336T190 345Q230 345 256 319T283 252Z"  />
<glyph unicode="&#x2026;" horiz-adv-x="657" d="M59 -10Q42 -10 31 2T19 31Q19 51 33 64T67 78Q84 78 95 66T107 37Q107 17 93 4T59 -10ZM278 -10Q261 -10 250 2T238 31Q238 51 252 64T286 78Q303 78 314 66T326 37Q326 17 312 4T278 -10ZM497 -10Q480 -10 469 2T457 31Q457 51 471 64T505 78Q522 78 533 66T545 37Q545 17 531 4T497 -10Z"  />
<glyph unicode="&#x2030;" horiz-adv-x="1067" d="M74 0L647 667H693L119 0H74ZM494 -12Q464 -12 438 -3T392 25T361 67T349 122Q349 165 363 201T402 262T458 302T524 316Q554 316 580 307T626 279T657 237T669 182Q669 138 655 103T616 42T560 2T494 -12ZM495 27Q520 27 543 38T583 70T611 117T622 178Q622 220 594 248T523 277Q498 277 475 266T435 234T407 186T396 126Q396 83 424 55T495 27ZM234 350Q204 350 178 359T132 386T101 428T90 483Q90 526 104 562T143 623T198 663T265 677Q295 677 321 668T366 641T397 599T409 544Q409 500 395 465T356 404T300 364T234 350ZM236 388Q261 388 284 399T324 431T352 479T363 539Q363 582 335 610T263 638Q238 638 215 627T175 595T147 548T136 487Q136 444 164 416T236 388ZM841 -12Q811 -12 785 -3T739 25T708 67T696 122Q696 165 710 201T749 262T805 302T871 316Q901 316 927 307T973 279T1004 237T1016 182Q1016 138 1002 103T963 42T907 2T841 -12ZM842 27Q867 27 890 38T930 70T958 117T969 178Q969 220 941 248T870 277Q845 277 822 266T782 234T754 186T743 126Q743 83 771 55T842 27Z"  />
<glyph unicode="&#x2039;" horiz-adv-x="277" d="M149 63L29 243L229 420H290L86 238L202 63H149Z"  />
<glyph unicode="&#x203A;" horiz-adv-x="277" d="M130 420L250 240L50 63H-11L193 245L77 420H130Z"  />
<glyph unicode="&#x2044;" horiz-adv-x="130" d="M-180 0H-225L348 667H394L-180 0Z"  />
<glyph unicode="&#x20AC;" horiz-adv-x="690" d="M390 -12Q329 -12 277 6T186 57T122 137T92 242H34L43 283H90Q90 310 93 335T103 385H66L75 426H115Q136 484 172 531T254 610T352 660T460 678Q548 678 616 641T722 535L667 510Q632 573 577 599T456 626Q414 626 373 613T295 573T228 510T179 426H517L507 385H165Q159 361 156 336T152 283H485L476 242H154Q165 149 228 95T393 40Q442 40 489 58T581 116L622 82Q571 33 511 11T390 -12Z"  />
<glyph unicode="&#x2122;" horiz-adv-x="454" d="M436 447L476 629L361 447H353L318 629L278 447H250L298 667H341L370 507L469 667H512L464 447H436ZM195 641L152 447H124L167 641H105L110 667H262L257 641H195Z"  />
<glyph unicode="&#xF656;" horiz-adv-x="214" d="M54 0L128 337L51 271L29 301L148 400H188L100 0H54Z"  />
<glyph unicode="&#xF657;" horiz-adv-x="384" d="M-2 0L7 39Q70 77 123 110T214 175T275 237T297 299Q297 317 289 330T269 351T240 364T206 368Q135 368 93 321L70 351Q96 377 130 391T206 406Q230 406 254 401T298 383T330 350T343 301Q343 265 321 231T261 165T175 101T74 38H287L279 0H-2Z"  />
<glyph unicode="&#xF658;" horiz-adv-x="384" d="M306 115Q306 92 297 71T269 32T224 4T163 -7Q110 -7 71 11T11 65L43 90Q62 61 93 46T162 31Q208 31 234 57T260 121Q260 150 231 168T156 187Q148 187 141 187T128 186L136 225Q147 224 164 224T195 223Q240 223 267 243T295 300Q295 332 266 350T197 368Q165 368 140 358T88 324L68 353Q91 374 126 390T199 406Q227 406 252 400T297 382T328 350T340 306Q340 259 308 232T228 201Q243 198 257 191T282 173T299 148T306 115Z"  />
<glyph unicode="&#xF659;" horiz-adv-x="384" d="M253 107L229 0H185L208 107H12L19 142L256 400H317L260 144H320L313 107H253ZM263 355L67 144H216L263 355Z"  />


</font>
</defs>
</svg>
